<?xml version="1.0" encoding="UTF-8" standalone="no"?>
<!DOCTYPE svg PUBLIC "-//W3C//DTD SVG 1.1//EN" "http://www.w3.org/Graphics/SVG/1.1/DTD/svg11.dtd">
<svg version="1.1" xmlns="http://www.w3.org/2000/svg" xmlns:xlink="http://www.w3.org/1999/xlink" preserveAspectRatio="xMidYMid meet" viewBox="0 0 64 64" width="64" height="64"><defs><path d="M60.03 32.06C60.03 47.5 47.49 60.04 32.05 60.04C16.6 60.04 4.06 47.5 4.06 32.06C4.06 16.61 16.6 4.07 32.05 4.07C47.49 4.07 60.03 16.61 60.03 32.06Z" id="c7C8DcGVan"></path><path d="M30.09 16.99L34.4 16.99L34.4 34.08L30.09 34.08L30.09 16.99Z" id="d28k6MURbc"></path><path d="M44.37 44.35L41.07 47.13L30.09 34.03L33.39 31.26L44.37 44.35Z" id="e3ffxyPVvz"></path><path d="M11.85 30.4L11.85 32.13L4.06 32.13L4.06 30.4L11.85 30.4Z" id="c29W9YsisJ"></path><path d="M60.03 30.4L60.03 32.13L52.25 32.13L52.25 30.4L60.03 30.4Z" id="d1TdOGJ1Dk"></path><path d="M31.38 4.07L33.11 4.07L33.11 11.85L31.38 11.85L31.38 4.07Z" id="bodeF1Ku"></path><path d="M31.38 52.26L33.11 52.26L33.11 60.04L31.38 60.04L31.38 52.26Z" id="f18pWlLrcd"></path></defs><g><g><g><g><use xlink:href="#c7C8DcGVan" opacity="1" fill-opacity="0" stroke="#7cb661" stroke-width="8" stroke-opacity="1"></use></g></g><g><use xlink:href="#d28k6MURbc" opacity="1" fill="#7cb661" fill-opacity="1"></use></g><g><use xlink:href="#e3ffxyPVvz" opacity="1" fill="#7cb661" fill-opacity="1"></use></g><g><use xlink:href="#c29W9YsisJ" opacity="1" fill="#7cb661" fill-opacity="1"></use></g><g><use xlink:href="#d1TdOGJ1Dk" opacity="1" fill="#7cb661" fill-opacity="1"></use></g><g><use xlink:href="#bodeF1Ku" opacity="1" fill="#7cb661" fill-opacity="1"></use></g><g><use xlink:href="#f18pWlLrcd" opacity="1" fill="#7cb661" fill-opacity="1"></use></g></g></g></svg>